<?xml version="1.0" encoding="utf-8"?>
<!-- Generator: Adobe Illustrator 26.3.1, SVG Export Plug-In . SVG Version: 6.00 Build 0)  -->
<svg version="1.1" id="Layer_1" xmlns="http://www.w3.org/2000/svg" xmlns:xlink="http://www.w3.org/1999/xlink" x="0px" y="0px"
	 viewBox="0 0 635.5 571.4" style="enable-background:new 0 0 635.5 571.4;" xml:space="preserve">
<style type="text/css">
	.st0{fill:#CDE8FE;}
	.st1{fill:#3081FE;}
	.st2{fill:#92B6EA;}
	.st3{fill:#F7A9AD;}
	.st4{fill:none;stroke:#F27178;stroke-width:10;stroke-miterlimit:10;}
	.st5{fill:#FFFFFF;}
	.st6{fill-rule:evenodd;clip-rule:evenodd;fill:#1E264D;}
	.st7{fill-rule:evenodd;clip-rule:evenodd;fill:#CDE8FE;}
	.st8{opacity:0.6;fill:#1F254D;enable-background:new    ;}
	.st9{fill:#FFAF80;}
	.st10{fill:#BFBFBF;}
	.st11{fill:#FDFDFD;}
	.st12{fill:#1E264D;}
	.st13{fill:#352D40;}
	.st14{fill:#263360;}
	.st15{fill:#F5F5F5;}
	.st16{fill:#3C3745;}
	.st17{fill:#C4B3E0;}
	.st18{fill:#EBA27D;}
	.st19{fill:#8EB4FE;}
	.st20{fill:#262842;}
	.st21{fill:#CCCCCC;}
	.st22{fill:#FAFAF4;}
	.st23{fill:#F27178;}
	.st24{display:none;}
	.st25{display:inline;fill:#FAFAF4;}
	.st26{display:inline;fill:#A0D3F9;}
	.st27{display:inline;fill:#3B424D;}
	.st28{display:inline;fill:#005A96;}
	.st29{display:inline;fill:#007DC5;}
	.st30{display:inline;fill:#009BDF;}
	.st31{display:inline;fill:#263360;}
	.st32{display:inline;fill:#185567;}
</style>
<g id="Layer_2_1_">
	<g id="_1">
		<path class="st0" d="M127,235.2c-2-12.2-2.2-24.6-0.5-36.9c6.6-50.9,41.6-97.1,76.3-115.2c17.6-9.2,35.2-11.2,48.7-2.7
			c1.1,0.7,2.1,1.4,3.1,2.2C200.8,120,156.7,177.6,127,235.2z"/>
		<path class="st0" d="M421.1,65.1c14.3-19.4,28.7-35.9,42.6-45.4c12-8.1,23.7-11.1,35-6.5c44,18.3,67.2,148.5,72.7,286
			C545.9,209,485,114.2,421.1,65.1z"/>
		<path class="st1" d="M598.6,450.1c-7.7,16.5-19.5,30.7-34.3,41.2L162.8,499c0,0-33.8-21.2-55.4-62.8
			c-13.4-25.8-22.1-59.6-15.1-101c5.6-32.8,19.1-71.7,39.3-110.6c29.8-57.6,73.9-115.2,127.6-152.7c29.6-20.6,62.1-35.2,96.7-40.3
			c29.3-4.3,61.7,8.8,93.4,33.1C513.2,114,574,208.9,599.6,299C615.6,355.3,617.9,409.7,598.6,450.1z"/>
		<ellipse class="st2" cx="332.6" cy="516.4" rx="263.4" ry="40.6"/>
		<g>
			<path class="st3" d="M536.6,108.2c-16.3,17.4-31.5,47.1-31.5,47.1s-18.8-60.5-44.8-59.5c-26,1-38.1,16.4-32.3,44
				c5.6,26.1,72.6,92.2,72.6,92.2s76.8-59.5,84.5-98.3c4-20.2-0.3-31.8-16.2-35.6C557.1,95.3,544.8,99.4,536.6,108.2z"/>
			<path class="st4" d="M518.6,108.7c-16.3,17.4-31.5,47.1-31.5,47.1s-18.8-60.5-44.8-59.5c-26,1-38.1,16.4-32.3,44
				c5.6,26.1,72.6,92.2,72.6,92.2s76.8-59.5,84.5-98.3c4-20.2-0.3-31.8-16.2-35.6C539.2,95.8,526.9,99.9,518.6,108.7z"/>
			<polygon class="st5" points="343.4,154.4 386,154.4 420.4,210 452.1,130.3 487.4,186 511.1,137.7 529.5,166.4 546.9,154.4 
				607.2,154.4 607.2,148.9 545.2,148.9 531.1,158.6 510.5,126.5 486.8,174.7 451,118.1 419.4,197.7 389.1,148.9 343.4,148.9 
				343.4,154.4 			"/>
		</g>
		<g>
			<g>
				<path class="st6" d="M146.8,289.3C87.4,262.4,43.3,218.3,36.2,164c87.3,86.5,176.4,123.7,303.1,138.3c22.2,2.5,36.8,2,47.8,7.7
					c9.4,4.8,16.2,14.2,22.8,33.8c14.4,42.4,58.3,82.8,58.3,82.8c-3.3,1.4-7.8,2.4-12.8,3c-6.9,6.4-14.4,10.7-21.2,13.4
					c-19.2,39.9-51.3,57.7-57.4,56.3c-6.1-1.4-6.1-13.6-5.8-18.4c-14.6,10-37.1,22.6-44,20.8c-6.9-1.8,0-18.7,3.8-26.9
					c-7.3,4.9-46.6,26.1-50.9,15.8c-2.8-6.9,15.7-26.7,15.7-26.7c-21.8,8.3-62.3,21.2-74.9,10.2c-9.3-8.1,21.7-24.9,27.6-28.1
					c-28.9,5.8-64.9,10.3-85.9,2c-20.9-8.2,48-28.7,54.4-31.3c-47.9,2.9-105.8-4.5-110.8-18c-3.3-9,13-14,65.6-24.2
					c-70.1,2.4-130-30.1-125.5-46.9c2-7.5,21.1-9.1,59.1-2.7c-16.7-6-34.6-15.6-50-27.1c-12.4-9.2-53.1-46.3-41.7-66.1
					c5.1-8.9,64.1,30.1,78.6,37.4C108.4,277.2,128,283.6,146.8,289.3z"/>
				<path class="st7" d="M468.2,426.5c-12.5,5.7-38.9,8.2-43.4-0.8c-2.4,4.9-44.5,30.2,10.6,18.7c-10.1,4.7-18.9,5.3-25.8,9.1
					c-12.4,7-24.1,15.9-38.7,27.3c17.7-18.6,21.5-18.8,37.7-32.2c-3.2-1.8-4.7-6.1-1.3-12.4c-18,7.4-29.1,9.7-37.3,13.8
					c-10.8,5.5-19.6,10.2-39.2,24.7c13.4-14.8,12.6-14.1,39.1-30.6c-2.9-2-4.2-7.2,1.8-15c-18.2,6.9-26,7.2-34.5,11
					c-10.2,4.6-20.5,12.9-41.6,23.6c25.6-24.7,12.8-15.4,40.7-30.9c-3.4-3.4-1.1-10.1,9.1-20.1c-43.7,11.2-56.9,19.6-96.8,33.1
					c33.8-22.2,19.2-14.7,50.1-27.4c-5.6-1.5-7.6-5.2-2.7-12.5c2.4-3.7,6.8-7,11.9-9.9c-50,4.1-51.9,12.1-101.1,23.5
					c47.1-21.7,24.9-13.1,70-28c-4.9-5.3,2.9-14.3,25-23.6c-50.9-1.4-79.3,4.6-130.2,6.4c64.8-12.4,34.2-8.4,93.5-13.3
					c-10.1-5.6-6.3-13.5,14.6-19.2c-59.6-11.9-104.2-1.6-174.4-17.2c52.7,4,104,5.3,156.6,8.3c-4.6-5.4-4.7-10.4-0.4-14.3
					c-62.3-7.6-79.3-6.2-137.7-41.3c53.1,20.7,83.8,27.6,139.5,38.7c1.8-1.7,3.5-1.7,6.5-2.3c-21.6,27.5,33.8,22.4,61,24.5
					c-0.5-6.3,7.1-11.5,26.6-13.3c-23.2,8.7-19.7,14.2-13.5,19.7c10.7,9.5,40.2,16.2,32.8,18.9c-10.1,6.4-14.4,9.7-12.6,12.6
					c5.2,8.2,40.9,7.7,38.9,12.2c-11.7,7.3-31,18.5,28.9,22.4C441.5,413,404.5,436,468.2,426.5L468.2,426.5z M426.5,416.1
					c-8.5-0.6-18.6-1.1-27.4-3.6c-9.7,6.3-13.5,7.7-23.8,19.9c-14,16.5,21.6,4,26.5,2.2C411.7,431,420.4,426,426.5,416.1
					L426.5,416.1z M394.7,410.8c-10.4-3.7-17.9-10.7-5.3-19.5c-1.9-0.4-46.3,26.5-47.3,37.6C357.3,437,380.1,415.1,394.7,410.8
					L394.7,410.8z M384.7,390.2c-10.2-2.4-21.4-6-27.6-10.5c-9.7,6.5-50.7,24-54.4,31.2c9.5,3.3,30.5-1,38-3.1
					C362,401.8,367.3,395,384.7,390.2L384.7,390.2z M355.7,378.7c-5.4-4.6-5.5-10.2,5.7-16.5c-12.7-4.9-42.3,2.6-54.5,9.7
					c-18.3,10.8-48.4,26,4.8,17.6C328,386.9,339.9,381.8,355.7,378.7L355.7,378.7z M351.4,357.8c-11.7-5.9-19.7-12.7-20.7-18.7
					c-21.1,4.5-36.8,5-48.1,3.3c-40.9,16,3.2,19.2,19.9,19.7C322.9,362.8,329.9,359.1,351.4,357.8z"/>
			</g>
		</g>
		<g>
			<path class="st7" d="M557.4,317.4c14-6.3,24.4-16.7,26-29.5c-20.6,20.4-41.6,29.2-71.4,32.6c-5.2,0.6-8.7,0.5-11.3,1.8
				c-2.2,1.1-3.8,3.3-5.4,8c-3.4,10-13.7,19.5-13.7,19.5c0.8,0.3,1.8,0.6,3,0.7c1.6,1.5,3.4,2.5,5,3.2c4.5,9.4,12.1,13.6,13.5,13.3
				c1.4-0.3,1.4-3.2,1.4-4.3c3.4,2.3,8.7,5.3,10.4,4.9c1.6-0.4,0-4.4-0.9-6.3c1.7,1.1,11,6.1,12,3.7c0.7-1.6-3.7-6.3-3.7-6.3
				c5.1,2,14.7,5,17.6,2.4c2.2-1.9-5.1-5.9-6.5-6.6c6.8,1.4,15.3,2.4,20.2,0.5c4.9-1.9-11.3-6.8-12.8-7.4
				c11.3,0.7,24.9-1.1,26.1-4.3c0.8-2.1-3.1-3.3-15.5-5.7c16.5,0.6,30.6-7.1,29.6-11.1c-0.5-1.8-5-2.1-13.9-0.6
				c3.9-1.4,8.1-3.7,11.8-6.4c2.9-2.2,12.5-10.9,9.8-15.6c-1.2-2.1-15.1,7.1-18.5,8.8C566.5,314.5,561.8,316,557.4,317.4z"/>
			<path class="st6" d="M481.7,349.7c2.9,1.4,9.2,1.9,10.2-0.2c0.6,1.2,10.5,7.1-2.5,4.4c2.4,1.1,4.5,1.2,6.1,2.2
				c2.9,1.6,5.7,3.7,9.1,6.4c-4.2-4.4-5.1-4.4-8.9-7.6c0.8-0.4,1.1-1.4,0.3-2.9c4.2,1.8,6.9,2.3,8.8,3.3c2.5,1.3,4.6,2.4,9.2,5.8
				c-3.2-3.5-3-3.3-9.2-7.2c0.7-0.5,1-1.7-0.4-3.5c4.3,1.6,6.1,1.7,8.1,2.6c2.4,1.1,4.8,3,9.8,5.6c-6-5.8-3-3.6-9.6-7.3
				c0.8-0.8,0.3-2.4-2.1-4.7c10.3,2.7,13.4,4.6,22.8,7.8c-8-5.2-4.5-3.5-11.8-6.5c1.3-0.3,1.8-1.2,0.6-3c-0.6-0.9-1.6-1.6-2.8-2.3
				c11.8,1,12.2,2.9,23.8,5.5c-11.1-5.1-5.9-3.1-16.5-6.6c1.1-1.3-0.7-3.4-5.9-5.6c12-0.3,18.7,1.1,30.7,1.5c-15.3-2.9-8.1-2-22-3.1
				c2.4-1.3,1.5-3.2-3.4-4.5c14-2.8,24.6-0.4,41.1-4c-12.4,1-24.5,1.2-36.9,2c1.1-1.3,1.1-2.4,0.1-3.4c14.7-1.8,18.7-1.5,32.5-9.7
				c-12.5,4.9-19.7,6.5-32.9,9.1c-0.4-0.4-0.8-0.4-1.5-0.5c5.1,6.5-8,5.3-14.4,5.8c0.1-1.5-1.7-2.7-6.3-3.1c5.5,2,4.6,3.4,3.2,4.7
				c-2.5,2.2-9.5,3.8-7.7,4.5c2.4,1.5,3.4,2.3,3,3c-1.2,1.9-9.6,1.8-9.2,2.9c2.7,1.7,7.3,4.4-6.8,5.3
				C488,346.5,496.7,352,481.7,349.7L481.7,349.7z M491.5,347.3c2-0.1,4.4-0.3,6.5-0.9c2.3,1.5,3.2,1.8,5.6,4.7
				c3.3,3.9-5.1,0.9-6.2,0.5C495,350.8,492.9,349.6,491.5,347.3L491.5,347.3z M499,346c2.5-0.9,4.2-2.5,1.3-4.6
				c0.5-0.1,10.9,6.2,11.1,8.9C507.8,352.2,502.4,347,499,346L499,346z M501.4,341.2c2.4-0.6,5-1.4,6.5-2.5c2.3,1.5,12,5.6,12.8,7.3
				c-2.2,0.8-7.2-0.2-9-0.7C506.7,343.9,505.4,342.3,501.4,341.2L501.4,341.2z M508.2,338.5c1.3-1.1,1.3-2.4-1.3-3.9
				c3-1.2,10,0.6,12.8,2.3c4.3,2.5,11.4,6.1-1.1,4.1C514.7,340.4,511.9,339.2,508.2,338.5L508.2,338.5z M509.2,333.5
				c2.8-1.4,4.6-3,4.9-4.4c5,1,8.7,1.2,11.3,0.8c9.6,3.8-0.8,4.5-4.7,4.7C515.9,334.7,514.3,333.8,509.2,333.5z"/>
		</g>
		<g>
			<ellipse class="st8" cx="310.2" cy="530.4" rx="84" ry="7.4"/>
			<path class="st9" d="M369,240.5l-22.7-42.3l10.8-3.3c0,0,20.2,46.6,21.7,48.7s3.8,18.3,1.9,18.6s-9.7-5.5-10.3-8.7
				C369.6,250.2,369,240.5,369,240.5z"/>
			<path class="st10" d="M319.6,152.5c-0.9,12.9,20.1,47.8,24.4,49.6c1.9,0.8,4.5,0.5,7.1-0.6c-2.2-21.1-8.4-41.5-18.2-60.3
				C327.3,138.1,320.6,137.7,319.6,152.5z"/>
			<path class="st11" d="M341.1,147.8c-2.4-2.6-5.2-4.8-8.2-6.6c9.8,18.8,15.9,39.2,18.2,60.3c3.2-1.3,6-3.4,8.2-6
				C362.7,191,343.5,150.7,341.1,147.8z"/>
			<path class="st12" d="M334.6,245c0,0,10.5,131.9,8.5,166.5c-2.1,34.6-8.5,102-8.5,102h-9.7c0,0-10.5-154.8-22.9-177.3
				c-12.4-22.6-8.9-97.1-8.9-97.1L334.6,245z"/>
			<path class="st13" d="M325.7,530.2h39.9c0,0,2.3-2.9-2.4-5.3c-4.7-2.4-28.7-11.5-28.7-11.5h-9.6c0,0-2.5,2.2-2.7,3.1
				c-0.2,0.9,0,11,0,11S323.3,530.2,325.7,530.2z"/>
			<path class="st14" d="M317.2,242.2c0,0-5.6,114.1-20.2,161.6c-14.5,47.6-38.3,98.3-38.3,98.3l-8.8-5c0,0,16.1-94.5,19.7-142.5
				s5.2-112.4,5.2-112.4H317.2z"/>
			<path class="st13" d="M258.4,500.8c0,0,5.2,7.9,5.8,8.7c0.6,0.8,11.9,17.1,11.8,17.8c-0.2,0.8-2.1,3.6-6,1.8
				c-3.9-1.8-28.5-18.2-28.5-18.2c-0.2-1.4,0.1-2.9,0.6-4.2c0.9-1.8,4-7.5,4-7.5l2.9-2.2L258.4,500.8z"/>
			<path class="st1" d="M295.5,130.9c0,0-25.8,9.7-25.8,25.4s1.6,91.1,2.4,95.5s60.1,6.9,64.5,0c4.4-6.9-1.2-82.6-4.4-90.7
				c-3.2-8.1-5.2-25.4-17.3-28.2S295.5,130.9,295.5,130.9z"/>
			<path class="st10" d="M268.7,144.3c-0.5,0.9-0.8,1.8-1,2.7c-1.8,10.1-0.4,91.1-18.2,122.5c-2.4,4.2-4.5,8.6-6.6,13
				C277.3,247.5,275,191.5,268.7,144.3z"/>
			<path class="st10" d="M330.7,183.2c1.5,21.1,2.6,53,2.6,55.7c0,3.4,8.2,107.7,8.2,107.7s3.4-1.3,8.6-3.7
				c-9.3-47.9-7.8-95-16.1-144.8C333.1,193.3,332.4,188,330.7,183.2z"/>
			<path class="st15" d="M354.4,226.4c-5.7-20.2-16-81.3-23.9-86.8s-10.3-10.3-24.4-11.3c-12.8-1-32.6,7-37.5,16
				c6.4,47.1,8.6,103.2-25.7,138.2c-12.9,28.5-18.2,58.9-16.4,62c2,3.6,38.3-10.1,49.2-6.4c7.6-2.4,7.6-67.7,13-72.6
				c3.8-9.4,23.6-43.5,12.7-93.7c-5.2-24-25.5-29.4-21.5-32.2c4-2.8,22.4-7.3,31.8-3.4c0,0,15.4,17.2,17.5,32.6
				c0.5,3.4,0.9,8.4,1.3,14.3c1.8,4.8,2.5,10.1,3.2,15c8.3,49.7,6.9,96.9,16.1,144.7c13.8-6.4,40-20.6,47.1-38
				C406.7,281.1,360.2,246.6,354.4,226.4z"/>
			<path class="st16" d="M313.1,167.6c-0.6-2.9-2.2-5.4-4.5-7.3c-1.9-1.5-4.3-2.2-6.8-2.2c-2,0-3.9,0.4-5.7,1.2
				c-2.5-2.4-4.7-5-6.8-7.7c-1.6-2.1-3-4.3-4.1-6.7c-1.1-2.1-1.7-4.4-1.8-6.7c0-2,0.7-3.9,2.1-5.3c1.5-1.6,4-2.9,7.8-3.8l-0.4-1.7
				c-4,1-6.8,2.4-8.6,4.3c-1.7,1.7-2.6,4.1-2.6,6.5c0.1,2.8,0.9,5.5,2.2,7.9c2,3.7,4.4,7.2,7.2,10.3c1.4,1.6,2.6,2.9,3.4,3.6
				c-2.2,1.1-4.1,2.7-5.7,4.7c-1.2,1.9-1.8,4.2-1.7,6.5c0,4.6,1.5,10,2.9,14.3c1.5,4.3,2.9,7.5,2.9,7.5l1.5-0.7l0,0l-0.1-0.1
				c-0.3-0.7-1.7-3.9-3.1-8c-1.3-4.1-2.6-9-2.6-13c-0.1-1.9,0.4-3.9,1.4-5.5c1.4-1.8,3.1-3.2,5.1-4.2c2-1.1,4.3-1.7,6.6-1.7
				c2.1,0,4.1,0.6,5.7,1.8c2,1.6,3.3,3.9,3.9,6.4c1.8,6.6,2.9,12.1,3.7,15.9c0.4,1.9,0.6,3.4,0.8,4.4c0.1,0.5,0.2,0.9,0.2,1.2
				l0.1,0.4l1.7-0.2C316.7,182.3,315.1,174.9,313.1,167.6z"/>
			<path class="st16" d="M307.5,130.5l0.2,0.1c3.1,2.5,6.1,5.2,8.8,8.2c4.1,4.3,8.2,9.9,9.7,15.2c1.1,3.9,1.6,8,1.5,12
				c0,2.8-0.2,5.7-0.6,8.5c-0.2,1.1-0.3,1.9-0.4,2.5c-0.1,0.3-0.1,0.5-0.1,0.7v0.2v0.1l1.7,0.4c0.9-4,1.3-8.2,1.3-12.3
				c0-4.2-0.5-8.4-1.6-12.5c-1-3.2-2.5-6.2-4.5-9c-5.9-8.5-14.8-15.4-14.8-15.4L307.5,130.5L307.5,130.5z"/>
			<circle class="st17" cx="326.9" cy="178.4" r="5.4"/>
			<circle class="st16" cx="326.9" cy="178.4" r="3.2"/>
			<circle class="st16" cx="316.7" cy="190.7" r="2"/>
			<circle class="st16" cx="293.9" cy="193.1" r="2"/>
			<path class="st18" d="M308.6,121.5l-13.6-2.1l-2.2,10.3c4.2,3.7,9.2,6.3,14.6,7.5L308.6,121.5z"/>
			<path class="st9" d="M307.1,142.3l0.4-5.2c-5.4-1.2-10.5-3.8-14.6-7.5l-2.5,12c0,0,16.5,22.1,26.4,17.4
				C326.6,154.3,307.1,142.3,307.1,142.3z"/>
			<path class="st9" d="M317.8,94.7c0,0,1.7,20.6-1.7,25.4c-3.3,4.8-10.3,8.8-17.5,3.8c-7.3-4.9-14.2-13.3-13.3-25.5
				C286.3,86.1,312.5,75.1,317.8,94.7z"/>
			<path class="st13" d="M323.7,95.2c0,0,3.8,22.5,0,26.9c-3.8,4.4,8,18.1,0,12.3c-4.9-3.6-6.9-6.4-5.5-31.8
				c0.5-7.9-0.8-8.2-3.6-11.2c-2-2.2-2,6.1-7.1,2.6c-4.4-3-16.9-3.1-14.6,3.4c2.3,6.5,0,6.5-2.1,7.3c-3.1,1.1-3,8.9,2.1,9.1
				c3.6,0.1,3.1,6.5,1.7,11.7c-4.8,18.2-42.3,46.7-33,19.7c1.2-3.4,12.6-22.3,13.8-26.4c1.2-4.1-7.1-13.1,4.9-20.6
				c2.9-1.8-9.8-5.6-1.7-10.1c8.2-4.5,8.9-3.8,8.3-7.1s0.6-5.3,4.7-6.2c4.1-0.9,8.3,1.1,9.6-1.7s10.7-6,11.7-1.8c1,4.2,2,7.9,6,5.1
				c4-2.7,10-0.2,10-0.2s-3.7-0.7-5.9,2.6c-2.3,3.3,6.2,5.9,2.3,6.4C323,85.6,325.7,94.5,323.7,95.2z"/>
			<polygon class="st19" points="268.5,239.3 225.4,220.8 207.3,258.6 254,282 			"/>
			<polygon class="st20" points="262,279.4 254,282 268.5,239.3 270.9,241.5 			"/>
			<path class="st12" d="M269.3,241.5l-7.6,21l-45.1-23.1l8.9-18.5l46.5,19.1l0.5,2.4l-1.9,6.2c0,0-1.1-0.3-1-0.6
				c0.1-0.2,1-6.3,1-6.3L269.3,241.5z"/>
			<path class="st9" d="M247.3,193.5c0,0-17.7,53.7-18.7,55.6s-7.1,19.1-7.1,21.8c0,2.7,9.5,5.8,10.9,4.6s4.2-6.7,3.4-8.7
				s-3.8,0.2-4.4-3.2c-0.6-3.4,15.1-28.6,17.1-33.7c2-5,9.7-28.2,9.7-29.4C258.2,199.3,247.3,193.5,247.3,193.5z"/>
			<path class="st21" d="M281.4,168.7c0-5.3-0.4-10.5-1.4-15.7c-0.5-0.8-1.1-1.6-1.7-2.3c-1.4,21.3-8.2,41.9-18.3,60.4l1,0.6
				C260.9,211.7,281.4,177.7,281.4,168.7z"/>
			<path class="st11" d="M267.7,147.1c-6.2,3.8-23.2,43.3-25,49.6c-1.8,6.2,0,2.9,0,2.9l17.3,11.6c10-18.6,16.9-39.2,18.3-60.5
				C276,148,271.9,144.5,267.7,147.1z"/>
		</g>
		<g>
			<path class="st22" d="M456.5,445.6H552c6,0,10.8,4.8,10.8,10.8v51.1c0,6-4.8,10.8-10.8,10.8h-95.5c-6,0-10.8-4.8-10.8-10.8v-51.1
				C445.7,450.5,450.5,445.6,456.5,445.6z"/>
			<path class="st22" d="M488.5,447.5v-10.5H520v11.7c0,1.9,1.5,3.4,3.4,3.4s3.4-1.5,3.4-3.4c0,0,0,0,0,0v-15.1
				c0-1.9-1.5-3.4-3.4-3.4c0,0,0,0,0,0h-38.3c-0.9,0-1.8,0.4-2.4,1c-0.6,0.6-1,1.5-1,2.4v13.9c0,1.9,1.5,3.4,3.4,3.4
				S488.5,449.3,488.5,447.5L488.5,447.5z"/>
			
				<ellipse transform="matrix(0.1602 -0.9871 0.9871 0.1602 -53.9743 903.9393)" class="st23" cx="504.2" cy="483.7" rx="24.2" ry="24.2"/>
			<polygon class="st15" points="516.5,480 508.7,480 508.7,472.3 499.7,472.3 499.7,480 492,480 492,487.4 499.7,487.4 
				499.7,495.1 508.7,495.1 508.7,487.4 516.5,487.4 			"/>
		</g>
		<g class="st24">
			<path class="st25" d="M553,347.9h-62.2c2.7-7.7,6-15.2,9.9-22.3c0.5-1,1.1-2,1.6-3c3.8-6.6,8.1-13,12.8-19v-22.5h-6.8V274h27.1
				v7.1h-6.8v22.5l7.8,14.2L553,347.9z"/>
			<path class="st26" d="M553,347.9h-62.2c2.7-7.7,6-15.2,9.9-22.3c6.7,3.3,15.3,6.1,21.7,2.5c4.9-2.8,4.8-7.1,9.6-9.2
				c1.4-0.6,2.9-0.9,4.5-1L553,347.9z"/>
		</g>
		<g class="st24">
			<rect x="33.9" y="362" class="st27" width="67.5" height="5.6"/>
			<path class="st27" d="M118.4,537.7l3.8-0.6L94.7,367.3l-3.8,0.6l3.4,21h-24v-21.3h-3.8v21.3H44.1l3.5-21l-3.8-0.6L15.7,537.1
				l3.8,0.6l11.9-72.1h35v71.8h3.8v-71.8h36.5L118.4,537.7z M94.9,392.7l0.5,3.4H70.2v-3.4H94.9z M66.4,392.7v3.4H42.9l0.6-3.4H66.4
				z M32,461.8l10.2-61.8h24.2v61.8H32z M70.2,461.8v-61.8h25.9l10,61.8H70.2z"/>
			<path class="st28" d="M79.7,327.7l-0.2-0.6c-0.9-2.7-4.3-14.3-4.3-24c0-3.9,0.6-7.5,2-10c2.8-5,9.3-9.1,15.2-12
				c2.9-1.4,5.7-2.5,7.7-3.3c1-0.4,1.8-0.7,2.4-0.9l0.9-0.3l-0.3-1c-3.8,1.2-7.6,2.7-11.2,4.5c-5.9,2.9-12.6,7.1-15.6,12.4
				c-1.6,2.8-2.1,6.5-2.1,10.5c0,11.3,4.5,24.8,4.5,24.9L79.7,327.7L79.7,327.7z"/>
			<path class="st28" d="M79.8,251.4c-2.9,0.7-5.5,2.3-7.5,4.5c-3.7,3.8-7.4,10.9-7.3,23.6c0,4,0.3,8,0.9,11.9
				c2.6,18.2,3.9,28.3,4.5,33.9c0.3,2.8,0.5,4.4,0.6,5.3c0,0.5,0.1,0.8,0.1,1v0.2h1c0,0,0-1-0.6-6.6s-1.9-15.7-4.5-33.9
				c-0.6-3.9-0.9-7.8-0.9-11.8c0-12.6,3.6-19.3,7.1-22.9c1.4-1.4,3-2.6,4.8-3.5c0.5-0.2,1-0.4,1.6-0.6l0.4-0.1h0.1l0,0L79.8,251.4
				L79.8,251.4z"/>
			<path class="st28" d="M31.7,259.5l0.2,0.3c3.2,4.8,6,9.8,8.5,15c3.7,7.8,7.2,17.4,7.2,26c0,1,0,1.9-0.1,2.9
				c-0.4,4.5-0.6,8.4-0.6,11.8c0,11.1,1.8,16.4,1.8,16.5l1-0.3v-0.1c-0.2-0.6-1.7-5.8-1.7-16.1c0-3.4,0.2-7.3,0.6-11.7
				c0.1-1,0.1-1.9,0.1-2.9c0-9.4-4-19.8-8-27.9c-2.4-4.8-5-9.4-8-13.8L31.7,259.5L31.7,259.5z"/>
			<path class="st28" d="M50.4,246.2l0.4,1.4c0.8,3.1,2.9,11,4.8,20c1.9,8.9,3.5,18.9,3.5,25.9c0,1.4-0.1,2.9-0.3,4.3
				c-0.5,3.9-0.8,7.9-0.8,11.8c0,5.5,0.4,10.9,1.2,16.3c0.3,2,0.7,4,1.2,6c0.3,1.3,0.8,2.5,1.5,3.6l0.7-0.6c-0.6-1-1.1-2.1-1.3-3.2
				c-1.3-4.8-2.4-13.4-2.4-22.1c0-3.9,0.2-7.8,0.8-11.7c0.2-1.5,0.3-3,0.3-4.5c0-8.2-2.2-20.1-4.3-29.9c-2.2-9.8-4.3-17.6-4.3-17.6
				L50.4,246.2L50.4,246.2z"/>
			<path class="st26" d="M78.4,291.8c0,0-9.8-11.8,14.1-19.5s43.9,11.8,43.9,11.8s-25.2-0.2-29.4,1.1
				C96.2,288.3,84.3,301.7,78.4,291.8z"/>
			<path class="st29" d="M72.7,259.3c0,0-5.6-8.9,5.2-11.5s25.5,5.7,25.5,5.7S75.9,254.3,72.7,259.3z"/>
			<path class="st29" d="M59.2,270.5c0,0,3.5-11,0-18.7c-3.5-7.6-17.6-26-17.6-26s-1.4,27.4,2.1,33.4c3.5,6,7.8,13.8,7.1,23.7
				c-0.7,9.9,5.3,15.1,8.8,14.6C63.2,297,64.8,284.2,59.2,270.5z"/>
			<path class="st29" d="M7.2,267.3c0,0,24.1-2.8,31.1,13.5s11.4,11.6,9.1,3.3c-2.3-8.4-4.9-24.6-14.4-27.4
				C23.5,253.8,11.2,255.5,7.2,267.3z"/>
			<path class="st30" d="M21.6,302.3c0,0,17.9-17.6,25.3-3.9c4,7.2-4,4.2-6.7,2.6C37.6,299.2,23.6,299.6,21.6,302.3z"/>
			<rect x="42.5" y="315.2" class="st31" width="47.7" height="2.8"/>
			<rect x="42.5" y="319.9" class="st31" width="47.7" height="2.8"/>
			<rect x="51.4" y="359.6" class="st32" width="30" height="2.8"/>
			<path class="st31" d="M90,324.6H42.7c-1.1,12.1,2.5,23.4,8.6,34.3h30C87.5,348,91.2,336.6,90,324.6z"/>
		</g>
	</g>
</g>
</svg>
